# xmcd CD database file
#
# Track frame offsets:
#	150
#	21572
#	38981
#	59551
#	74228
#
# Disc length: 1199 seconds
#
# Revision: 0
# Processed by: cddbd v1.5.2PL0 Copyright (c) Steve Scherf et al.
# Submitted via: CDex 1.51
#
DISCID=5004ad05
DTITLE=Red Veda - Crush
DYEAR=2005
DGENRE=Jazz
TTITLE0=The Bridge
TTITLE1=Pensive
TTITLE2=No More Ms. Nice
TTITLE3=Crush
TTITLE4=Every Little Thing
EXTD=YEAR: 2005
EXTT0=
EXTT1=
EXTT2=
EXTT3=
EXTT4=
PLAYORDER=
